<?xml version="1.0" ?><svg xmlns="http://www.w3.org/2000/svg" xmlns:xlink="http://www.w3.org/1999/xlink" version="1.1" viewBox="0 0 512 512" style="enable-background:new 0 0 512 512;" xml:space="preserve"><style type="text/css">
	.st0{fill:#231A15;}
	.st1{fill:#FFE000;}
	.st2{fill:#BCA100;}
	.st3{fill:#FC0000;}
	.st4{fill:#AA0000;}
	.st5{fill:#F94343;}
	.st6{fill:#FFFFFF;}
	.st7{fill:#A58E07;}
	.st8{opacity:0.44;}
	.st9{fill:#756204;}
	.st10{opacity:0.64;}
	.st11{opacity:0.38;}
	.st12{fill:#5D5004;}
	.st13{fill:#B7A100;}
	.st14{fill:#1D4DFC;}
	.st15{fill:#143CAF;}
	.st16{opacity:0.59;}
	.st17{opacity:0.52;}
	.st18{fill:#FF7F1F;}
	.st19{fill:#C4570C;}
	.st20{fill:#B29904;}
	.st21{fill:#87720A;}
	.st22{fill:#DDDDDD;}
	.st23{opacity:0.51;}
	.st24{fill:#878787;}
	.st25{fill:#727272;}
	.st26{opacity:0.33;}
	.st27{opacity:0.46;}
	.st28{fill:#25CBF2;}
	.st29{fill:#0A8FA5;}
	.st30{opacity:0.58;}
	.st31{fill:#04889E;}
	.st32{fill:#035A63;}
	.st33{opacity:0.65;}
	.st34{opacity:0.39;}
	.st35{fill:#AB0000;}
	.st36{fill:#1987A1;}
	.st37{fill:#3F1F0A;}
	.st38{fill:#4DEEFF;}
	.st39{fill:#21B9C1;}
	.st40{fill:#BBF9FF;}
	.st41{fill:#64ACAF;}
	.st42{fill:#089FB7;}
	.st43{opacity:0.47;}
	.st44{opacity:0.42;}
	.st45{fill:#DBF7FC;}
	.st46{fill:#B2E7ED;}
	.st47{fill:#0FA2BA;}
	.st48{opacity:0.54;}
	.st49{fill:#8E7716;}
	.st50{fill:#191401;}
	.st51{fill:#382E02;}
	.st52{fill:#605106;}
	.st53{fill:#AFACA0;}
	.st54{fill:#BC0404;}
	.st55{fill:#750000;}
	.st56{fill:#A08B0D;}
	.st57{fill:#5B4C05;}
	.st58{opacity:0.4;}
	.st59{opacity:0.5;}
	.st60{fill:#FF8383;}
	.st61{fill:#FFF0A6;}
	.st62{fill:#E2C227;}
	.st63{fill:#AA9205;}
	.st64{fill:#FFEA71;}
	.st65{opacity:0.22;}
	.st66{fill:#B19B00;}
	.st67{fill:#1989A4;}
	.st68{fill:#13A0B7;}
	.st69{fill:#C4A805;}
	.st70{fill:#FFF3A9;}
	.st71{fill:#846E03;}
	.st72{fill:#2D2502;}
	.st73{opacity:0.36;}
	.st74{fill:#4DD307;}
	.st75{fill:#328402;}
	.st76{fill:#97FF5A;}
	.st77{fill:#7A6500;}
	.st78{fill:#246001;}
	.st79{fill:#359100;}
	.st80{fill:#968022;}
	.st81{fill:#4F420B;}
	.st82{fill:#FFED83;}
	.st83{fill:#BAA335;}
	.st84{fill:#8D0991;}
	.st85{fill:#4B044F;}
	.st86{fill:#CE15CE;}
	.st87{fill:#897502;}
	.st88{fill:#493D01;}
	.st89{fill:#C9C9C9;}
	.st90{fill:#2D280E;}
	.st91{fill:#378C06;}
	.st92{fill:#183A03;}
	.st93{fill:#94FF55;}
	.st94{fill:#2E7F04;}
	.st95{fill:#63AB39;}
	.st96{fill:#AA5F04;}
	.st97{fill:#633502;}
	.st98{fill:#EF9014;}
	.st99{fill:#A05A07;}
	.st100{fill:#05616B;}
	.st101{fill:#033335;}
	.st102{fill:#0E94AA;}
	.st103{fill:#035D66;}
	.st104{opacity:0.27;}
	.st105{opacity:0.43;}
	.st106{fill:#FFF203;}
	.st107{fill:#FFA300;}
	.st108{fill:#2B3030;}
	.st109{opacity:0.28;}
	.st110{fill:#FCD17A;}
	.st111{fill:#AF853A;}
	.st112{opacity:0.31;}
	.st113{fill:#B641FF;}
	.st114{fill:#700FBC;}
	.st115{fill:#F2D0B1;}
	.st116{fill:#AF835F;}
	.st117{fill:#C17540;}
	.st118{fill:#F2BA94;}
	.st119{fill:#592909;}
	.st120{fill:#2B1204;}
	.st121{fill:#894818;}
	.st122{fill:#512609;}
	.st123{fill:#FF7F15;}
	.st124{fill:#A04A0A;}
	.st125{fill:#B7865E;}
	.st126{fill:#70350E;}
	.st127{fill:#3A1805;}
	.st128{fill:#C1521B;}
	.st129{fill:#FFC7AE;}
	.st130{fill:#FF717F;}
	.st131{fill:#6E2F0F;}
	.st132{fill:#AC8675;}
	.st133{opacity:0.25;}
	.st134{opacity:0.32;}
	.st135{fill:#FFFCC5;}
	.st136{fill:#D1CA78;}
	.st137{fill:#D37733;}
	.st138{fill:#A04F18;}
	.st139{fill:#0ABFBA;}
	.st140{fill:#057F79;}
	.st141{fill:#15F9F9;}
	.st142{fill:#09B2AD;}
	.st143{fill:#B2B2B2;}
	.st144{fill:#FFF755;}
	.st145{fill:#BCB121;}
	.st146{fill:#F90368;}
	.st147{opacity:0.49;}
	.st148{fill:#B50857;}
	.st149{fill:#FF76B4;}
	.st150{fill:#F23091;}
	.st151{fill:#FFF800;}
	.st152{fill:#C9BF05;}
	.st153{fill:#FF8500;}
	.st154{fill:#A35507;}
	.st155{fill:#AA6E50;}
	.st156{fill:#723C25;}
	.st157{fill:#EAD4B9;}
	.st158{fill:#AA8D6F;}
	.st159{fill:#B7A8A5;}
	.st160{fill:#84726F;}
	.st161{fill:#77645F;}
	.st162{fill:#51403C;}
	.st163{fill:#EABBA7;}
	.st164{fill:#BC7F69;}
	.st165{fill:#7C5039;}
	.st166{fill:#442619;}
	.st167{fill:#B7AE04;}
	.st168{fill:#BAB108;}
	.st169{fill:#7A7105;}
	.st170{fill:#352B23;}
	.st171{fill:#050403;}
	.st172{fill:#706255;}
	.st173{fill:#44382E;}
	.st174{fill:#634319;}
	.st175{fill:#35210A;}
	.st176{fill:#2D1C08;}
	.st177{fill:#0A0601;}
	.st178{fill:#9E7443;}
	.st179{fill:#704D2A;}
	.st180{fill:#D8A73A;}
	.st181{fill:#A0741C;}
	.st182{fill:#3F2F28;}
	.st183{fill:#211410;}
	.st184{fill:#FF326C;}
	.st185{fill:#BC0749;}
	.st186{fill:#68390E;}
	.st187{fill:#A5632D;}
	.st188{fill:#3D1E05;}
	.st189{fill:#331A06;}
	.st190{fill:#110801;}
	.st191{fill:#160A02;}
	.st192{fill:#663514;}
	.st193{opacity:0.29;}
	.st194{fill:#FC001F;}
	.st195{fill:#AF021F;}
	.st196{fill:#C48622;}
	.st197{fill:#8C5910;}
	.st198{fill:#846D64;}
	.st199{fill:#513B35;}
	.st200{fill:#5B4842;}
	.st201{fill:#332522;}
	.st202{fill:#47332C;}
	.st203{fill:#543E38;}
	.st204{fill:#1E1412;}
	.st205{fill:#604C43;}
	.st206{fill:#D3896C;}
	.st207{fill:#FF001F;}
	.st208{fill:#AF0824;}
	.st209{fill:#A37462;}
	.st210{fill:#5E3E34;}
	.st211{fill:#874A38;}
	.st212{fill:#4C2218;}
	.st213{fill:#5B2B20;}
	.st214{fill:#210C09;}
	.st215{fill:#99001A;}
	.st216{fill:#A08A07;}
	.st217{fill:#A08904;}
	.st218{fill:#5B4C02;}
	.st219{fill:#CECAB7;}
	.st220{fill:#727068;}
	.st221{fill:#42403A;}
	.st222{fill:#B2B0A6;}
	.st223{fill:#726F62;}
	.st224{fill:#6B4F45;}
	.st225{fill:#3A261F;}
	.st226{fill:#777468;}
	.st227{fill:#474436;}
	.st228{fill:#B78B7D;}
	.st229{fill:#845A4E;}
	.st230{fill:#3A372D;}
	.st231{fill:#43CFFF;}
	.st232{fill:#13A0BC;}
</style><g id="_x34_7"><g><path class="st0" stroke="white" stroke-width="20" d="M237.62,498.37c-1.87,0-3.75-0.01-5.64-0.04c-0.05,0-0.1,0-0.15,0c-1.92-0.03-3.9-0.08-5.91-0.16    c-1.07-0.04-2.12-0.09-3.18-0.15l-1.2-0.06c-0.42-0.02-0.85-0.04-1.27-0.07c-1.63-0.1-3.22-0.21-4.81-0.34l-0.58-0.05    c-46.74-3.78-82.44-20.63-106.05-50.07C72.77,402.49,74.98,341.13,79.5,308.56c8.28-59.61,41.77-81.88,68.68-99.77    c6.5-4.32,12.65-8.41,17.81-12.65c12.94-10.63,11.67-13.54,3.44-32.47c-3.79-8.72-8.51-19.57-12.51-33.95    c-4.44-15.95-2.78-29,4.94-38.79c7.78-9.85,19.63-13.62,28.94-14.99c-2.78-14.13-5.89-27.03-5.92-27.19    c-0.01-0.04-0.02-0.08-0.03-0.12c-0.36-1.46-0.55-2.94-0.55-4.41c0-0.67,0.04-1.35,0.12-2.08c0.02-0.19,0.05-0.39,0.08-0.59    c0.08-0.54,0.17-1,0.28-1.46c0.05-0.23,0.11-0.46,0.17-0.69c0.12-0.44,0.26-0.9,0.42-1.35c0.06-0.18,0.12-0.36,0.19-0.54    c1.18-3.05,3.17-5.89,5.92-8.47c3.05-3.12,22.22-20.29,68.98-14.07c3.35,0.4,6.64,0.93,9.77,1.58c0.01,0,0.02,0,0.02,0    c8.42,1.75,20.04,5.28,27.63,12.15c1.07,0.97,2.03,1.98,2.87,3.01c0.02,0.03,0.05,0.06,0.07,0.09c0.38,0.47,0.74,0.96,1.08,1.45    c0.05,0.07,0.09,0.13,0.14,0.2c0.33,0.5,0.65,1.02,0.95,1.56c0.06,0.11,0.13,0.22,0.19,0.34c0.26,0.49,0.5,1,0.73,1.54    c0.07,0.17,0.14,0.33,0.21,0.49c0.24,0.6,0.41,1.15,0.53,1.55c0.06,0.19,0.12,0.39,0.17,0.58c0.17,0.65,0.27,1.2,0.35,1.63    c0.04,0.23,0.08,0.45,0.11,0.67c0.07,0.55,0.12,1.09,0.14,1.61c0.34,2.63,0.58,5.31,0.74,7.98c0.08,1.36,0.13,2.76,0.16,4.15    c0.08,3.96-0.03,7.99-0.35,11.99c-0.27,3.49-0.7,7.02-1.29,10.55c6.4,1.43,11.95,3.25,16.79,5.49c0.88,0.41,1.77,0.84,2.63,1.29    c0.02,0.01,0.07,0.04,0.09,0.05c0.83,0.44,1.65,0.89,2.43,1.36l0.23,0.14c0.77,0.46,1.51,0.93,2.19,1.39l0.35,0.24    c0.71,0.49,1.36,0.95,1.98,1.43c0.15,0.11,0.31,0.24,0.47,0.37l0.08,0.07c0.56,0.44,1.11,0.89,1.65,1.35    c0.21,0.18,0.42,0.38,0.63,0.58l0.24,0.22c0.41,0.38,0.82,0.76,1.21,1.15c0.28,0.28,0.57,0.59,0.86,0.9l0.35,0.37    c0.26,0.27,0.51,0.54,0.75,0.82c0.64,0.73,1.24,1.48,1.8,2.22c0.01,0.01,0.01,0.02,0.02,0.03l0,0c1.16,1.54,2.21,3.17,3.14,4.82    c0.46,0.82,0.89,1.66,1.29,2.51c0.79,1.67,1.48,3.41,2.04,5.17c0.3,0.95,0.58,1.97,0.86,3.11c1.69,7.11,1.61,14.8-0.24,22.87    c-0.25,1.1-0.5,2.09-0.76,3.02c-0.6,2.11-1.34,4.33-2.22,6.59c-0.26,0.67-0.53,1.33-0.81,2c-0.59,1.4-1.16,2.66-1.73,3.84    c-0.87,1.81-1.87,3.7-2.97,5.62c-0.56,0.97-1.13,1.94-1.73,2.9c-0.36,0.58-0.73,1.17-1.11,1.76c-1.76,2.72-3.65,5.38-5.63,7.91    c-1.62,2.08-3.36,4.15-5.16,6.14c-0.81,0.9-1.51,1.77-2.08,2.59c-0.49,0.71-0.9,1.39-1.2,2.02c-0.24,0.5-0.42,0.96-0.52,1.39    c-0.08,0.32-0.12,0.61-0.12,0.89c-0.02,1.74,1.71,3.95,3.17,5.5c0.38,0.4,0.77,0.79,1.18,1.19c2.5,2.39,5.97,5,10.58,7.97    c1.1,0.71,2.24,1.43,3.43,2.16c0.9,0.55,1.83,1.1,2.78,1.66c2.78,1.63,5.85,3.36,9.39,5.27c4.2,2.27,8.92,4.75,14.86,7.78    c3,1.54,5.99,3.27,8.89,5.17c4.95,3.23,9.79,7.02,14.37,11.25c1.29,1.19,2.57,2.42,3.81,3.68c4.93,4.97,9.59,10.52,13.85,16.49    c1.05,1.47,2.09,2.99,3.09,4.52c1,1.52,1.98,3.09,2.94,4.66c0.94,1.56,1.88,3.17,2.78,4.79c2.69,4.85,5.16,9.93,7.33,15.1    c0.72,1.72,1.43,3.49,2.09,5.24c0.67,1.76,1.31,3.56,1.91,5.33c1.82,5.4,3.36,10.94,4.57,16.46c0.82,3.74,1.5,7.53,2.03,11.27    c2.37,16.83,1.8,33.27-1.7,48.86c-0.85,3.79-1.8,7.54-2.82,11.16c-1.97,6.96-4.29,13.71-6.91,20.07c-0.4,0.96-0.81,1.93-1.22,2.89    c-1.28,2.94-2.64,5.85-4.06,8.66c-0.49,0.96-0.98,1.92-1.49,2.88c-1.55,2.92-3.2,5.8-4.91,8.57c-3.61,5.85-7.63,11.45-11.95,16.64    c-3.04,3.66-6.3,7.2-9.69,10.53c-0.87,0.85-1.75,1.7-2.65,2.54c-1.19,1.11-2.52,2.3-4.06,3.63c-1.62,1.4-3.08,2.61-4.46,3.72    c-0.99,0.79-2,1.58-3.03,2.35c-3.12,2.35-6.38,4.62-9.71,6.75c-1.13,0.72-2.27,1.43-3.44,2.13c-4.71,2.84-9.69,5.5-14.81,7.91    c-2.61,1.23-5.32,2.43-8.05,3.55c-1.38,0.57-2.77,1.12-4.19,1.67c-2.36,0.91-4.84,1.8-7.58,2.72c-2.23,0.75-4.48,1.47-6.71,2.14    c-2.4,0.72-4.87,1.41-7.35,2.06c-0.66,0.17-1.32,0.34-1.98,0.51c-3.08,0.78-6,1.45-8.91,2.07c-1.79,0.38-3.77,0.77-6.06,1.19    c-5,0.93-10.1,1.72-15.17,2.37c-1.85,0.24-3.73,0.46-5.62,0.66c-2.04,0.22-4.12,0.42-6.21,0.6    C258.86,497.93,248.4,498.37,237.62,498.37z M232.35,478.33c12.07,0.17,23.74-0.24,34.69-1.2c1.96-0.17,3.9-0.36,5.82-0.56    c1.77-0.19,3.52-0.4,5.24-0.62c4.69-0.6,9.42-1.34,14.05-2.19c2.12-0.39,3.94-0.75,5.57-1.1c2.66-0.56,5.32-1.18,8.16-1.9    c0.61-0.15,1.21-0.31,1.8-0.46c2.25-0.59,4.49-1.22,6.67-1.87c2.01-0.6,4.05-1.25,6.06-1.93c2.48-0.84,4.71-1.64,6.81-2.44    c1.27-0.49,2.51-0.98,3.74-1.49c2.42-1,4.83-2.06,7.14-3.15c4.51-2.12,8.88-4.46,13.01-6.95c1.01-0.61,2.01-1.23,3-1.86    c2.89-1.85,5.72-3.81,8.42-5.85c0.89-0.67,1.76-1.35,2.62-2.03c1.18-0.94,2.44-1.99,3.85-3.21c1.35-1.16,2.49-2.19,3.5-3.12    c0.77-0.72,1.53-1.45,2.28-2.18c2.91-2.86,5.71-5.9,8.33-9.04c3.72-4.48,7.19-9.31,10.31-14.36c1.48-2.4,2.92-4.91,4.27-7.45    c0.44-0.83,0.88-1.67,1.3-2.51c1.24-2.46,2.44-5.02,3.56-7.6c0.37-0.85,0.73-1.7,1.08-2.55c2.33-5.64,4.4-11.66,6.16-17.89    c0.92-3.26,1.78-6.66,2.55-10.09c2.97-13.23,3.44-27.26,1.41-41.7v0c-0.46-3.25-1.05-6.54-1.76-9.79    c-1.05-4.81-2.39-9.63-3.98-14.34c-0.52-1.55-1.08-3.12-1.66-4.65c-0.58-1.53-1.19-3.07-1.82-4.57c-1.89-4.5-4.04-8.92-6.38-13.14    c-0.78-1.41-1.59-2.81-2.41-4.16c-0.82-1.36-1.68-2.72-2.54-4.03c-0.87-1.32-1.76-2.63-2.66-3.89    c-3.63-5.09-7.58-9.81-11.76-14.01c-1.04-1.05-2.11-2.08-3.18-3.07c-3.77-3.48-7.72-6.58-11.75-9.2c-2.31-1.51-4.68-2.89-7.06-4.1    c-6.08-3.11-10.94-5.65-15.29-8.01c-3.74-2.03-7.01-3.86-9.99-5.62c-1.05-0.61-2.06-1.22-3.05-1.82    c-1.35-0.82-2.63-1.63-3.87-2.43c-5.69-3.67-10.12-7.04-13.55-10.31c-0.69-0.66-1.34-1.31-1.94-1.95    c-5.78-6.14-8.68-12.67-8.61-19.42c0.02-1.84,0.26-3.7,0.72-5.54c0.43-1.73,1.07-3.48,1.9-5.2c0.77-1.6,1.72-3.21,2.83-4.8    c1.04-1.49,2.25-3,3.6-4.5c1.49-1.65,2.92-3.36,4.26-5.08c1.61-2.07,3.16-4.24,4.6-6.46c0.3-0.46,0.6-0.94,0.89-1.41    c0.48-0.77,0.94-1.54,1.38-2.32c0.87-1.52,1.65-3,2.32-4.39c0.42-0.87,0.85-1.82,1.31-2.92c0.21-0.5,0.41-0.99,0.6-1.49    c0.65-1.66,1.19-3.26,1.61-4.75c0.19-0.69,0.37-1.39,0.53-2.08c1.16-5.03,1.25-9.66,0.27-13.75c-0.15-0.64-0.3-1.18-0.45-1.65    c-0.29-0.92-0.65-1.82-1.06-2.69c-0.21-0.44-0.44-0.89-0.68-1.32c-0.48-0.87-1.04-1.72-1.65-2.54c-0.01-0.02-0.02-0.03-0.04-0.05    c-0.27-0.36-0.57-0.74-0.9-1.12l-0.71-0.76c-0.09-0.1-0.19-0.2-0.28-0.3c-0.2-0.2-0.38-0.36-0.57-0.53l-0.55-0.51    c-0.28-0.25-0.59-0.49-0.89-0.72l-0.33-0.27c-0.34-0.26-0.71-0.52-1.08-0.78l-0.19-0.13c-0.46-0.31-0.91-0.59-1.36-0.86    c-0.03-0.02-0.06-0.04-0.09-0.05c-0.55-0.33-1.06-0.61-1.58-0.89c-0.02-0.01-0.13-0.07-0.15-0.08c-0.48-0.25-1.06-0.54-1.66-0.81    c-5.52-2.55-12.61-4.43-21.67-5.74c-2.8-0.4-5.29-1.97-6.87-4.32c-1.58-2.34-2.09-5.25-1.41-7.99c1.47-5.93,2.45-11.89,2.91-17.72    c0.26-3.34,0.36-6.7,0.29-9.99c-0.03-1.16-0.07-2.31-0.14-3.44c-0.13-2.36-0.36-4.72-0.67-7.03c-0.04-0.3-0.07-0.6-0.08-0.91    c-0.02-0.03-0.04-0.06-0.06-0.09c-0.05-0.07-0.1-0.13-0.15-0.2c-0.02-0.02-0.03-0.04-0.05-0.06c-0.19-0.23-0.44-0.48-0.73-0.75    c-3.22-2.92-10.05-5.68-18.27-7.39c-0.01,0-0.02,0-0.03-0.01c-2.59-0.54-5.32-0.98-8.11-1.3c-0.05-0.01-0.1-0.01-0.16-0.02    c-36.44-4.87-50.81,7.06-52.07,8.19c-0.17,0.18-0.35,0.36-0.54,0.53c-0.44,0.4-0.71,0.71-0.87,0.92    c0.73,3.04,5.2,21.98,8.13,39.09c0.51,2.97-0.35,6.01-2.33,8.28c-1.98,2.27-4.88,3.52-7.89,3.41c-6.62-0.25-19.31,1.18-24.76,8.09    c-3.55,4.5-4.01,11.57-1.38,21.03c3.63,13.04,8.04,23.19,11.59,31.34c8.67,19.94,15.52,35.69-9.09,55.9    c-5.94,4.88-12.49,9.24-19.43,13.85c-24.8,16.49-52.9,35.18-59.94,85.87c-4.08,29.39-6.25,84.52,25.12,123.62    c20.04,24.98,51.02,39.33,92.1,42.65l0.56,0.04c1.4,0.11,2.87,0.22,4.36,0.3c0.35,0.02,0.71,0.04,1.06,0.05l1.27,0.06    c0.96,0.05,1.91,0.1,2.88,0.14c1.89,0.07,3.75,0.12,5.54,0.14C232.25,478.33,232.3,478.33,232.35,478.33z M204.25,43.79    C204.25,43.79,204.25,43.79,204.25,43.79C204.25,43.79,204.25,43.79,204.25,43.79z"/></g><g><g><g><path class="st135" d="M203.19,85.26c0,0-49.18-3.23-36.64,41.78c12.54,45.01,32.79,54.65,5.79,76.83s-73.29,36.64-82.93,106.07      s4.82,176.46,142.71,178.39c137.89,1.93,177.43-67.5,189.96-123.43c12.54-55.93-17.36-119.57-60.75-141.75      s-61.71-34.71-44.36-54c17.36-19.29,28.93-46.29,14.46-65.57C316.98,84.29,278.41,81.4,203.19,85.26z"/></g><g><path class="st136" d="M422.09,364.9c-12.54,55.93-52.07,125.36-189.96,123.43c-7.49-0.1-14.59-0.54-21.37-1.24      c33.06-0.37,74.23-4.66,110.08-19.44c66.54-27.43,109.93-92.14,83.89-169.29c-26.04-77.14-81-81-109.29-94.5      c-28.29-13.5-66.21-12.54-66.21-12.54s22.18-3.86,46.22-11.57c24.04-7.71,43.46-28.93,50.82-52.72      c7.06-22.84-7.79-33.54-8.99-34.36c6.12,2.83,10.8,6.42,14.16,10.9c14.46,19.29,2.89,46.29-14.46,65.57s0.96,31.82,44.36,54      C404.73,245.33,434.62,308.97,422.09,364.9z M206.73,119.22l4.18-11.79c-20.25,1.93-31.82-5.79-27.96,0      C186.8,113.22,206.73,119.22,206.73,119.22z M275.45,105.24v16.49c0,0,33.19-11.93,36.4-16.49      C315.05,100.68,286.95,115.58,275.45,105.24z"/></g></g><g><g><path class="st137" d="M194.6,46.4c0,0,7.85,32.53,9.99,51.82s2.14,21,2.14,21s8.57,7.71,38.14,6.86      c29.57-0.86,34.29-6.43,34.29-6.43s21.86-33.43,16.29-75.43"/></g><g><path class="st138" d="M295.44,44.22l-30.24,0.65c1.85,3.53,2.98,7.47,3.22,11.45c1.21,19.66-9.66,42.4-30.56,46.57      c-13.71,2.74-25.43-2.08-34.09-10.82c0.31,2.15,0.59,4.21,0.8,6.14c2.14,19.29,2.14,21,2.14,21s8.57,7.71,38.14,6.86      c29.57-0.86,34.29-6.43,34.29-6.43S301.02,86.22,295.44,44.22z"/></g></g><g><g><ellipse class="st137" cx="244.87" cy="44.22" rx="50.57" ry="20.14"/></g><g><path class="st138" d="M291.18,36.12c-0.03,0.03-0.07,0.06-0.1,0.09c-15.1,11.84-33.86,16.18-52.65,18.08      c-8.35,0.85-17.42,0.54-25.47-1.93c-6.57-2.02-13.23-5.91-18.06-11.24c-0.39,1.01-0.6,2.04-0.6,3.1      c0,11.12,22.64,20.14,50.57,20.14c27.93,0,50.57-9.02,50.57-20.14C295.44,41.34,293.91,38.6,291.18,36.12z"/></g></g><g><g><path class="st139" d="M136.66,272.33c0,0-42.68,50.81-15.43,123.43s112.82,83.89,193.82,61.71      c81-22.18,108.96-116.68,62.68-189.96"/></g><g><path class="st140" d="M377.73,267.51l-22.33,0.45c0.76,5.64,1.51,11.27,2.27,16.91c0.71,18.75-3.2,36.23-11.73,52.46      c-5.49,16.88-14.88,31.49-28.15,43.82c-12.33,13.28-26.94,22.66-43.82,28.15c-16.23,8.52-33.71,12.43-52.46,11.73      c-24.58-0.08-47.48-6.27-68.72-18.59l-27.56-21.29c-4.11-4.14-7.91-8.46-11.4-12.96c1.42,8.77,3.79,17.98,7.39,27.57      c27.25,72.62,112.82,83.89,193.82,61.71S424.02,340.79,377.73,267.51z"/></g></g><g><g><ellipse class="st141" cx="257.19" cy="272.33" rx="120.54" ry="26.04"/></g><g><path class="st142" d="M341.77,253.78c-4.61,5.46-10.56,8.64-17.52,11.42c-25.75,10.27-53.46,14.91-81.01,16.96      c-25.24,1.88-50.62,0.74-75.73-2.22c-6.25-0.02-12.07-1.59-17.47-4.73c-2.33-1.8-4.67-3.61-7-5.41      c-1.17-1.07-2.21-2.24-3.16-3.47c-2.1,1.93-3.22,3.94-3.22,6c0,14.38,53.97,26.04,120.54,26.04s120.54-11.66,120.54-26.04      C377.73,265.07,363.96,258.5,341.77,253.78z"/></g></g><g><g><path class="st6" d="M198.56,36.12c0,0,18.03-19.49,69.67-9.77 M256,63.87c0,0-29.44,8.13-52.21-7.9l6.97,41.83l0.15-27      C210.91,70.79,236.48,76.23,256,63.87z M295.44,119.22c0,0-66.21,29.68-112.5-11.79c0,0-12.54-7.46-9.64,19.6      c2.89,27.06,23.68,44.04,21,62.36s-33.6,30.06-57.64,46.29s-43.5,57.45-43.39,108c0.11,50.55,33.75,86.79,33.75,86.79      s-53.14-66.48-13.17-139.95s90.93-79.91,119.55-79.91s-23.75,2.89-22.64-27.96s-10.47-29.49-16.45-50.14      C188.32,111.86,244.98,160.9,295.44,119.22z M313.6,253.78c0,0-154.77-9.39-166.34,14.7c0,0-1.91,14.05,47.04,13.86      c0,0-46.32-0.48-30.64-15.18S313.6,253.78,313.6,253.78z M337.54,291.73c0,0-36.34,8.56-104.15,6.63s-95.49-22.29-95.49-22.29      s-41.33,32.82-21.29,105.18c0,0,2.69-73.25,25.83-76.14S256.85,323.67,337.54,291.73z"/></g><g><path class="st6" d="M153.05,316.83c-12.23,0-12.25,19,0,19C165.28,335.83,165.3,316.83,153.05,316.83z"/></g><g><path class="st6" d="M140.52,345.47c-5.15,0-5.16,8,0,8C145.66,353.47,145.67,345.47,140.52,345.47z"/></g><g class="st58"><path class="st6" d="M360.19,416.01c0.04,1.17-0.2,2.26-0.73,3.27c-0.34,1.05-0.93,1.97-1.76,2.74      c-0.77,0.83-1.68,1.41-2.74,1.76c-1.01,0.53-2.1,0.78-3.27,0.73h-0.96c-1.53,0-2.96-0.39-4.29-1.16      c-0.57-0.44-1.15-0.89-1.72-1.33c-1.05-1.06-1.78-2.31-2.19-3.75c-0.1-0.75-0.2-1.51-0.3-2.26c-0.04-1.17,0.2-2.26,0.73-3.27      c0.34-1.05,0.93-1.97,1.76-2.74c0.77-0.83,1.68-1.41,2.74-1.76c1.01-0.53,2.1-0.78,3.27-0.73h0.96c1.53,0,2.96,0.39,4.29,1.16      c0.57,0.44,1.15,0.89,1.72,1.33c1.05,1.06,1.78,2.31,2.19,3.75C359.99,414.5,360.09,415.25,360.19,416.01z M372.91,387.47      c-3.22,0-3.22,5,0,5C376.13,392.47,376.13,387.47,372.91,387.47z"/></g></g></g></g></svg>